<svg width="590" height="590" viewBox="0 0 590 590" fill="none" xmlns="http://www.w3.org/2000/svg">
<path fill-rule="evenodd" clip-rule="evenodd" d="M28.32 3.60107e-05L499.14 0L330.4 590L28.32 590C12.6793 590 0 577.321 0 561.68V28.32C0 12.6793 12.6793 3.60107e-05 28.32 3.60107e-05ZM103.939 470.517C110.054 474.652 119.104 476.72 131.089 476.72C136.715 476.72 143.196 474.896 150.534 471.247C157.872 467.841 165.332 462.976 172.915 456.651C180.742 450.569 187.59 443.514 193.461 435.486C199.575 427.459 203.733 418.823 205.935 409.579C213.273 382.576 220.855 355.209 228.682 327.476C236.509 299.744 244.581 272.376 252.897 245.374C253.386 242.698 254.487 240.873 256.199 239.9C258.156 238.927 260.602 238.441 263.537 238.441L295.823 237.711C297.535 237.711 299.125 236.981 300.593 235.521C302.305 234.062 303.65 232.359 304.628 230.413C305.607 228.467 306.096 227.007 306.096 226.034C306.096 223.115 305.118 221.655 303.161 221.655C297.046 221.655 290.809 221.898 284.449 222.385C278.09 222.628 271.364 222.75 264.27 222.75C263.047 222.75 261.947 222.507 260.968 222.02C260.235 221.29 259.868 220.196 259.868 218.736C259.868 217.52 259.99 216.425 260.235 215.452C260.724 214.236 261.091 212.898 261.335 211.438C262.803 206.816 264.026 202.316 265.004 197.937C266.227 193.558 267.572 188.936 269.04 184.071C273.198 170.448 277.112 159.622 280.78 151.595C284.449 143.323 288.485 137.363 292.888 133.714C297.291 130.065 302.549 128.241 308.664 128.241C313.801 128.241 317.959 129.701 321.138 132.62C324.318 135.539 327.009 139.431 329.21 144.297C331.167 148.675 332.879 152.446 334.347 155.608C336.059 158.771 338.138 160.352 340.584 160.352C344.742 160.352 348.411 158.406 351.59 154.514C354.77 150.621 356.36 145.634 356.36 139.553C356.36 131.768 353.058 125.443 346.454 120.578C339.85 115.713 331.045 113.28 320.038 113.28C310.743 113.28 300.348 116.321 288.852 122.403C277.601 128.241 266.839 137.972 256.566 151.595C246.293 164.974 237.977 182.976 231.617 205.6L228.682 216.547C227.459 220.682 225.38 222.872 222.445 223.115L197.863 224.574C195.417 224.818 193.338 226.156 191.626 228.588C189.914 231.021 189.058 233.21 189.058 235.157C189.058 236.616 189.425 237.832 190.158 238.806C190.892 239.779 192.238 240.265 194.194 240.265L216.942 239.9C221.589 239.9 223.301 242.09 222.078 246.468L172.548 415.782C169.123 427.215 165.944 436.216 163.009 442.784C160.073 449.596 157.016 454.34 153.836 457.015C150.412 459.935 146.621 461.394 142.463 461.394C138.06 461.394 134.391 460.178 131.456 457.745C128.276 455.556 125.586 453.002 123.384 450.082C120.938 447.163 118.737 444.366 116.78 441.69C114.579 439.257 112.378 438.041 110.176 438.041C106.997 438.041 103.572 439.744 99.9034 443.149C96.2344 446.798 94.4 450.812 94.4 455.191C94.4 461.516 97.5797 466.624 103.939 470.517Z" fill="#FF4949"/>
<path d="M527.823 0L359.522 590H330.4L342.961 544.816L498.373 0H527.823Z" fill="#180D0D"/>
</svg>
