<svg width="128" height="128" viewBox="0 0 128 128" fill="none" xmlns="http://www.w3.org/2000/svg">
<rect width="128" height="128" rx="2.60339" fill="white"/>
<path fill-rule="evenodd" clip-rule="evenodd" d="M6.144 7.8125e-06L108.288 0L71.68 128L6.144 128C2.75076 128 0 125.249 0 121.856V6.14401C0 2.75077 2.75076 7.8125e-06 6.144 7.8125e-06ZM22.5495 102.078C23.8761 102.975 25.8395 103.424 28.4397 103.424C29.6601 103.424 31.0664 103.028 32.6583 102.237C34.2502 101.498 35.8687 100.442 37.5137 99.07C39.2117 97.7505 40.6975 96.22 41.9711 94.4784C43.2977 92.7368 44.1998 90.8632 44.6774 88.8577C46.2693 82.9995 47.9143 77.0622 49.6124 71.0457C51.3104 65.0292 53.0616 59.0918 54.8657 53.2336C54.9719 52.6531 55.2107 52.2573 55.5821 52.0461C56.0066 51.835 56.5373 51.7295 57.1741 51.7295L64.1786 51.5712C64.55 51.5712 64.8949 51.4128 65.2133 51.0962C65.5848 50.7795 65.8766 50.4101 66.0889 49.9879C66.3011 49.5657 66.4073 49.249 66.4073 49.0379C66.4073 48.4046 66.195 48.0879 65.7705 48.0879C64.4439 48.0879 63.0907 48.1407 61.7111 48.2462C60.3314 48.299 58.8721 48.3254 57.3332 48.3254C57.0679 48.3254 56.8291 48.2726 56.6169 48.1671C56.4577 48.0087 56.3781 47.7713 56.3781 47.4546C56.3781 47.1907 56.4046 46.9532 56.4577 46.7421C56.5638 46.4782 56.6434 46.188 56.6965 45.8713C57.0149 44.8685 57.2802 43.8922 57.4924 42.9422C57.7578 41.9922 58.0496 40.9895 58.368 39.934C59.2701 36.9785 60.1191 34.6299 60.9151 32.8883C61.7111 31.0939 62.5866 29.8009 63.5418 29.0092C64.4969 28.2176 65.6378 27.8218 66.9644 27.8218C68.0788 27.8218 68.9809 28.1384 69.6707 28.7717C70.3606 29.4051 70.9443 30.2495 71.4219 31.305C71.8464 32.255 72.2178 33.073 72.5362 33.7591C72.9077 34.4452 73.3587 34.7883 73.8894 34.7883C74.7914 34.7883 75.5874 34.366 76.2772 33.5216C76.9671 32.6772 77.312 31.5953 77.312 30.2759C77.312 28.587 76.5956 27.2148 75.1629 26.1593C73.7302 25.1038 71.8198 24.576 69.4319 24.576C67.4155 24.576 65.1603 25.2357 62.6662 26.5551C60.2253 27.8218 57.8904 29.9328 55.6617 32.8883C53.433 35.791 51.6288 39.6965 50.2491 44.6047L49.6124 46.9796C49.3471 47.8768 48.896 48.3518 48.2592 48.4046L42.9263 48.7212C42.3956 48.774 41.9446 49.0643 41.5731 49.592C41.2017 50.1198 41.0159 50.5948 41.0159 51.017C41.0159 51.3337 41.0955 51.5975 41.2547 51.8087C41.4139 52.0198 41.7058 52.1253 42.1303 52.1253L47.0653 52.0461C48.0735 52.0461 48.445 52.5211 48.1796 53.4711L37.4341 90.2035C36.6912 92.684 36.0013 94.6367 35.3646 96.0617C34.7278 97.5394 34.0645 98.5686 33.3747 99.1491C32.6318 99.7824 31.8093 100.099 30.9072 100.099C29.952 100.099 29.156 99.8352 28.5193 99.3075C27.8294 98.8325 27.2457 98.2783 26.7681 97.645C26.2375 97.0117 25.7599 96.4047 25.3354 95.8242C24.8578 95.2964 24.3802 95.0326 23.9027 95.0326C23.2128 95.0326 22.4699 95.402 21.674 96.1409C20.878 96.9325 20.48 97.8033 20.48 98.7533C20.48 100.125 21.1698 101.234 22.5495 102.078Z" fill="#FF4949"/>
<path d="M114.511 0L77.998 128H71.68L74.4051 118.197L108.122 0H114.511Z" fill="#180D0D"/>
</svg>
